# xmcd
#
# Track frame offsets:
#	150
#	17557
#	35869
#	56491
#	83093
#	106215
#	122247
#	144509
#	162606
#	184508
#	206960
#	233297
#	262764
#	283311
#	299888
#
# Disc length: 4227 seconds
#
# Revision: 0
# Processed by: cddbd v1.5.2PL0 Copyright (c) Steve Scherf et al.
# Submitted via: EasyCDDAExtractor 10.0.2.1
#
DISCID=df10810f
DTITLE=Various Artist - 2007 Mainstream Stepper Vol 3
DYEAR=2007
DGENRE=R&B
TTITLE0=Tank - Please Don' t Go
TTITLE1=Macy Gray - Shoo Be Doo
TTITLE2=Lloyd  - Valentine
TTITLE3=Donnie - Cloud 9 (Rmx)
TTITLE4=Marzette Griffith - Stepping With Style
TTITLE5=Marzette Griffith - Baby You Got Me
TTITLE6=Andriana Evans - Say You Won't
TTITLE7=Marques Houston - Always and Forever
TTITLE8=D. J. Inc - Have Your Way With Me
TTITLE9=D. J. Inc - Amazin' Grace
TTITLE10=Steve Maestro - Brazillian Nights
TTITLE11=Steve Maestro - Step Into The A. M.
TTITLE12=P. Diddy - Come To Me (Rmx)
TTITLE13=Rickey Rush - It's You
TTITLE14=Atlantic Starr - My Sugar
EXTD=
EXTT0=
EXTT1=
EXTT2=
EXTT3=
EXTT4=
EXTT5=
EXTT6=
EXTT7=
EXTT8=
EXTT9=
EXTT10=
EXTT11=
EXTT12=
EXTT13=
EXTT14=
PLAYORDER=
